<svg width="16" height="16" viewBox="0 0 16 16" fill="none" xmlns="http://www.w3.org/2000/svg">
<g clip-path="url(#clip0_557_47)">
<path d="M15.9999 7.99992H5.33325M12.3333 4.66659C12.3333 5.05125 12.7766 5.70792 13.1519 6.19592C13.4774 6.62559 13.8702 6.99976 14.3153 7.30392C14.7999 7.62992 15.4666 7.99992 15.9933 7.99992C15.4666 7.99992 14.7999 8.37059 14.3153 8.69592C13.8702 9.00008 13.4774 9.37425 13.1519 9.80392C12.7766 10.2919 12.3333 10.9486 12.3333 11.3333M9.66658 4.66659V1.66659H9.44725C6.49761 1.66664 3.56338 1.24115 0.735252 0.403252L0.499919 0.333252H0.333252V15.6666H0.499919L0.735252 15.5966C3.56338 14.7587 6.49761 14.3332 9.44725 14.3333H9.66658V11.3333" stroke="#E4193D"/>
</g>
<defs>
<clipPath id="clip0_557_47">
<rect width="16" height="16" fill="white"/>
</clipPath>
</defs>
</svg>
