<svg width="16" height="17" viewBox="0 0 16 17" fill="none" xmlns="http://www.w3.org/2000/svg">
<path d="M13.8981 10.8997L10.9538 9.58034L10.9456 9.57659C10.7928 9.51121 10.626 9.48498 10.4605 9.50026C10.2949 9.51553 10.1358 9.57184 9.99751 9.66409C9.98122 9.67485 9.96557 9.68653 9.95063 9.69909L8.42938 10.996C7.46563 10.5278 6.47063 9.54034 6.00251 8.58909L7.30126 7.04472C7.31376 7.02909 7.32563 7.01347 7.33688 6.99659C7.42715 6.85866 7.48192 6.70054 7.49631 6.53633C7.5107 6.37211 7.48428 6.20688 7.41938 6.05534V6.04784L6.09626 3.09847C6.01047 2.90051 5.86296 2.7356 5.67575 2.62837C5.48854 2.52113 5.27166 2.47732 5.05751 2.50347C4.21061 2.61491 3.43324 3.03082 2.87059 3.67353C2.30794 4.31623 1.99847 5.14177 2.00001 5.99597C2.00001 10.9585 6.03751 14.996 11 14.996C11.8542 14.9975 12.6797 14.688 13.3224 14.1254C13.9651 13.5627 14.3811 12.7854 14.4925 11.9385C14.5187 11.7244 14.475 11.5076 14.3679 11.3204C14.2607 11.1332 14.096 10.9856 13.8981 10.8997ZM11 13.996C8.87898 13.9937 6.8455 13.1501 5.34571 11.6503C3.84592 10.1505 3.00232 8.11699 3.00001 5.99597C2.99765 5.38565 3.21754 4.79534 3.61859 4.33528C4.01964 3.87523 4.57444 3.57688 5.17938 3.49597C5.17913 3.49846 5.17913 3.50097 5.17938 3.50347L6.49188 6.44097L5.20001 7.98722C5.18689 8.00231 5.17498 8.0184 5.16438 8.03534C5.07033 8.17967 5.01515 8.34584 5.0042 8.51776C4.99325 8.68967 5.0269 8.8615 5.10188 9.01659C5.66813 10.1747 6.83501 11.3328 8.00563 11.8985C8.16186 11.9727 8.33468 12.0052 8.50722 11.9927C8.67976 11.9803 8.8461 11.9232 8.99001 11.8272C9.00605 11.8164 9.02149 11.8047 9.03626 11.7922L10.5556 10.496L13.4931 11.8116H13.5C13.4201 12.4174 13.1222 12.9733 12.662 13.3753C12.2019 13.7774 11.611 13.998 11 13.996Z" fill="black"/>
</svg>
