<svg width="16" height="17" viewBox="0 0 16 17" fill="none" xmlns="http://www.w3.org/2000/svg">
<path d="M14.4325 14.2463C13.4807 12.6007 12.0138 11.4207 10.3019 10.8613C11.1487 10.3572 11.8066 9.58913 12.1746 8.67495C12.5425 7.76077 12.6002 6.75108 12.3388 5.80093C12.0774 4.85077 11.5113 4.0127 10.7275 3.41541C9.94372 2.81811 8.9855 2.49463 8.00005 2.49463C7.01459 2.49463 6.05638 2.81811 5.27256 3.41541C4.48875 4.0127 3.92267 4.85077 3.66126 5.80093C3.39985 6.75108 3.45756 7.76077 3.82554 8.67495C4.19351 9.58913 4.8514 10.3572 5.69817 10.8613C3.9863 11.4201 2.51942 12.6001 1.56755 14.2463C1.53264 14.3032 1.50949 14.3666 1.49945 14.4326C1.48942 14.4986 1.49271 14.566 1.50912 14.6307C1.52554 14.6954 1.55476 14.7562 1.59504 14.8094C1.63533 14.8627 1.68587 14.9073 1.74369 14.9407C1.8015 14.9741 1.86542 14.9956 1.93168 15.0039C1.99793 15.0122 2.06517 15.0071 2.12944 14.989C2.1937 14.9709 2.25369 14.9401 2.30585 14.8984C2.35802 14.8567 2.40131 14.805 2.43317 14.7463C3.61067 12.7113 5.69192 11.4963 8.00005 11.4963C10.3082 11.4963 12.3894 12.7113 13.5669 14.7463C13.5988 14.805 13.6421 14.8567 13.6942 14.8984C13.7464 14.9401 13.8064 14.9709 13.8707 14.989C13.9349 15.0071 14.0022 15.0122 14.0684 15.0039C14.1347 14.9956 14.1986 14.9741 14.2564 14.9407C14.3142 14.9073 14.3648 14.8627 14.4051 14.8094C14.4453 14.7562 14.4746 14.6954 14.491 14.6307C14.5074 14.566 14.5107 14.4986 14.5006 14.4326C14.4906 14.3666 14.4675 14.3032 14.4325 14.2463ZM4.50005 6.99633C4.50005 6.30409 4.70532 5.62741 5.0899 5.05183C5.47449 4.47626 6.02111 4.02766 6.66066 3.76275C7.3002 3.49784 8.00393 3.42853 8.68286 3.56358C9.3618 3.69863 9.98544 4.03197 10.4749 4.52146C10.9644 5.01094 11.2977 5.63458 11.4328 6.31351C11.5678 6.99245 11.4985 7.69618 11.2336 8.33572C10.9687 8.97526 10.5201 9.52189 9.94454 9.90647C9.36897 10.2911 8.69228 10.4963 8.00005 10.4963C7.07209 10.4953 6.18243 10.1263 5.52627 9.47011C4.87011 8.81394 4.50104 7.92428 4.50005 6.99633Z" fill="black"/>
</svg>
