<svg width="16" height="16" viewBox="0 0 16 16" fill="none" xmlns="http://www.w3.org/2000/svg">
<g clip-path="url(#clip0_82_3032)">
<path fill-rule="evenodd" clip-rule="evenodd" d="M-0.231445 7.13514C-0.231445 3.19451 2.93348 0 6.83762 0C10.7417 0 13.9067 3.1945 13.9067 7.13514C13.9067 8.87188 13.2919 10.4637 12.27 11.701L15.4322 14.8927C15.6831 15.146 15.6831 15.5567 15.4322 15.81C15.1812 16.0633 14.7743 16.0633 14.5233 15.81L11.3612 12.6183C10.1354 13.6497 8.55828 14.2703 6.83762 14.2703C2.93348 14.2703 -0.231445 11.0757 -0.231445 7.13514ZM6.83762 1.2973C3.64332 1.2973 1.05384 3.91098 1.05384 7.13514C1.05384 10.3593 3.64333 12.973 6.83762 12.973C10.0319 12.973 12.6214 10.3593 12.6214 7.13514C12.6214 3.91098 10.0319 1.2973 6.83762 1.2973Z" fill="#7E858E"/>
</g>
<defs>
<clipPath id="clip0_82_3032">
<rect width="16" height="16" fill="white"/>
</clipPath>
</defs>
</svg>
